<?xml version="1.0" encoding="UTF-8"?>
<svg width="370px" height="480px" viewBox="0 0 370 480" version="1.1" xmlns="http://www.w3.org/2000/svg" xmlns:xlink="http://www.w3.org/1999/xlink">
    <!-- Generator: Sketch 45.1 (43504) - http://www.bohemiancoding.com/sketch -->
    <title>Slice 2 Copy 2</title>
    <desc>Created with Sketch.</desc>
    <defs>
        <filter x="-5.0%" y="-199.9%" width="110.0%" height="499.8%" filterUnits="objectBoundingBox" id="filter-1">
            <feGaussianBlur stdDeviation="3.65792411" in="SourceGraphic"></feGaussianBlur>
        </filter>
        <linearGradient x1="11.9158064%" y1="7.49441964%" x2="50%" y2="100%" id="linearGradient-2">
            <stop stop-color="#FFFFFF" stop-opacity="0.5" offset="0%"></stop>
            <stop stop-color="#000000" stop-opacity="0.5" offset="100%"></stop>
        </linearGradient>
        <path d="M231.5,71 L76,71 L76,71 C74.3431458,71 73,72.3431458 73,74 L73,74 L73,418 C73,419.656854 74.3431458,421 76,421 L231.5,421 L271,421 C285.359403,421 297,409.359403 297,395 L297,97 C297,82.6405965 285.359403,71 271,71 L231.5,71 Z" id="path-3"></path>
    </defs>
    <g id="Page-1" stroke="none" stroke-width="1" fill="none" fill-rule="evenodd">
        <rect id="Rectangle-4-Copy-2" fill="#A2A2A2" filter="url(#filter-1)" x="75" y="417" width="219.535156" height="5.48999977" rx="2.74499989"></rect>
        <g id="Combined-Shape-Copy-3">
            <use fill="#3026AA" xlink:href="#path-3"></use>
            <use fill-opacity="0.3" fill="url(#linearGradient-2)" style="mix-blend-mode: multiply;" xlink:href="#path-3"></use>
        </g>
        <text id="WHERE-TO-FIND-CLIENT-Copy-2" opacity="0.910665761" font-family="Rift-Bold, Rift" font-size="19" font-weight="bold" line-spacing="19" letter-spacing="1.89999998" fill="#FFFFFF">
            <tspan x="141.362" y="178.746">WHERE TO </tspan>
            <tspan x="127.8625" y="197.746">FIND CLIENTS</tspan>
        </text>
        <text id="FIELD-GUIDE-Copy-2" opacity="0.910665761" font-family="Rift-Medium, Rift" font-size="15" font-weight="400" letter-spacing="1.5" fill="#FFFFFF">
            <tspan x="147.485" y="357">FIELD GUIDE</tspan>
        </text>
        <text id="YOUR-WEBSITE" opacity="0.937330163" font-family="Rift-Bold, Rift" font-size="30" font-weight="bold" line-spacing="29" letter-spacing="2" fill="#FFFFFF">
            <tspan x="148.590781" y="226.02">YOUR </tspan>
            <tspan x="128.730781" y="255.02">WEBSITE</tspan>
        </text>
    </g>
</svg>