<?xml version="1.0" encoding="UTF-8"?>
<svg width="114px" height="25px" viewBox="0 0 114 25" version="1.1" xmlns="http://www.w3.org/2000/svg" xmlns:xlink="http://www.w3.org/1999/xlink">
    <!-- Generator: Sketch 45.1 (43504) - http://www.bohemiancoding.com/sketch -->
    <title>Slice</title>
    <desc>Created with Sketch.</desc>
    <defs></defs>
    <g id="Page-1" stroke="none" stroke-width="1" fill="none" fill-rule="evenodd">
        <path d="M19.5151563,2 L17.9251562,2 L15.0751562,19.7 L11.5051563,2 L9.91515625,2 L6.31515625,19.7 L3.49515625,2 L1.81515625,2 L5.35515625,23 L7.00515625,23 L10.6951563,5.18 L14.3551563,23 L15.9751563,23 L19.5151563,2 Z M21.9751563,6.2 C21.9751563,3.23 23.5951563,1.76 26.7751563,1.76 L27.0151563,1.76 C30.1951563,1.76 31.8151563,3.26 31.8151563,6.2 L31.8151563,18.8 C31.8151563,21.74 30.1951563,23.24 27.0151563,23.24 L26.7751563,23.24 C23.5951563,23.24 21.9751563,21.74 21.9751563,18.8 L21.9751563,6.2 Z M23.5951563,18.26 C23.5951563,20.75 24.5251563,21.74 26.8951563,21.74 C29.2651563,21.74 30.1951563,20.75 30.1951563,18.26 L30.1951563,6.74 C30.1951563,4.25 29.2651563,3.26 26.8951563,3.26 C24.5251563,3.26 23.5951563,4.25 23.5951563,6.74 L23.5951563,18.26 Z M46.1251563,23 L44.3851563,23 L40.9351562,13.94 L37.2751563,13.94 L37.2751563,23 L35.6551563,23 L35.6551563,2 L40.6051562,2 C43.7851562,2 45.4051563,3.5 45.4051563,6.44 L45.4051563,9.5 C45.4051563,11.78 44.4451562,13.19 42.5251563,13.7 L46.1251563,23 Z M40.4851562,12.47 C42.8551562,12.47 43.7851562,11.45 43.7851562,8.99 L43.7851562,6.98 C43.7851562,4.49 42.8551562,3.5 40.4851562,3.5 L37.2751563,3.5 L37.2751563,12.47 L40.4851562,12.47 Z M59.6851562,23 L54.5551562,9.83 L59.3251562,2 L57.5251563,2 L50.8051562,13.34 L50.8051562,2 L49.1851562,2 L49.1851562,23 L50.8051562,23 L50.8051562,15.95 L53.5351563,11.48 L57.9451562,23 L59.6851562,23 Z M70.7851562,9.26 L70.7851562,6.08 C70.7851562,3.2 68.9851562,1.76 66.1051562,1.76 L66.0451562,1.76 C63.1651562,1.76 61.3651562,3.2 61.3651562,6.08 L61.3651562,8.51 C61.3651562,10.19 62.1151562,11 63.8551562,11.99 L67.0051563,13.7 C68.5951562,14.6 69.2251562,15.14 69.2251562,16.7 L69.2251562,18.38 C69.2251562,20.66 68.3851563,21.77 66.1051562,21.77 C63.8251562,21.77 62.9851562,20.66 62.9851562,18.38 L62.9851562,15.44 L61.3651562,15.44 L61.3651562,18.86 C61.3651562,21.89 62.8951563,23.24 66.0751562,23.24 L66.1351563,23.24 C69.3151562,23.24 70.8451562,21.86 70.8451562,18.86 L70.8451562,16.16 C70.8451562,14.57 69.7951562,13.4 68.3251562,12.62 L65.1151562,10.85 C63.5251563,10.01 62.9851562,9.59 62.9851562,8.03 L62.9851562,6.56 C62.9851562,4.25 63.8251562,3.23 66.0751562,3.23 C68.3251562,3.23 69.1651562,4.25 69.1651562,6.56 L69.1651562,9.26 L70.7851562,9.26 Z M74.3251562,2 L74.3251562,23 L75.9451562,23 L75.9451562,13.07 L82.6951562,13.07 L82.6951562,23 L84.3151562,23 L84.3151562,2 L82.6951562,2 L82.6951562,11.57 L75.9451562,11.57 L75.9451562,2 L74.3251562,2 Z M88.1551563,6.2 C88.1551563,3.23 89.7751563,1.76 92.9551562,1.76 L93.1951562,1.76 C96.3751563,1.76 97.9951563,3.26 97.9951563,6.2 L97.9951563,18.8 C97.9951563,21.74 96.3751563,23.24 93.1951562,23.24 L92.9551562,23.24 C89.7751563,23.24 88.1551563,21.74 88.1551563,18.8 L88.1551563,6.2 Z M89.7751563,18.26 C89.7751563,20.75 90.7051562,21.74 93.0751562,21.74 C95.4451562,21.74 96.3751563,20.75 96.3751563,18.26 L96.3751563,6.74 C96.3751563,4.25 95.4451562,3.26 93.0751562,3.26 C90.7051562,3.26 89.7751563,4.25 89.7751563,6.74 L89.7751563,18.26 Z M106.785156,2 C109.965156,2 111.585156,3.5 111.585156,6.44 L111.585156,9.74 C111.585156,12.68 109.965156,14.18 106.785156,14.18 L103.455156,14.18 L103.455156,23 L101.835156,23 L101.835156,2 L106.785156,2 Z M109.965156,9.2 L109.965156,6.98 C109.965156,4.49 109.035156,3.5 106.665156,3.5 L103.455156,3.5 L103.455156,12.68 L106.665156,12.68 C109.035156,12.68 109.965156,11.69 109.965156,9.2 Z" id="Workshop" fill="#141414"></path>
    </g>
</svg>