<?xml version="1.0" encoding="UTF-8"?>
<svg width="40px" height="31px" viewBox="0 0 40 31" version="1.1" xmlns="http://www.w3.org/2000/svg" xmlns:xlink="http://www.w3.org/1999/xlink">
    <!-- Generator: Sketch 44.1 (41455) - http://www.bohemiancoding.com/sketch -->
    <title>Slice</title>
    <desc>Created with Sketch.</desc>
    <defs></defs>
    <g id="Page-1" stroke="none" stroke-width="1" fill="none" fill-rule="evenodd">
        <g id="Group-Copy-3">
            <path d="M12.7659577,4 C12.7659576,3.6129246 12.7659574,3.26547046 12.7659574,3.26547046 C12.7659574,1.47562148 13.6135283,0 15.2903508,0 L23.8132168,0 C25.4915746,0 26.3829783,1.45220093 26.3829783,3.24292518 C26.3829783,3.24292518 26.3829785,3.60250839 26.3829786,4 L36.5957447,4 L36.5957447,4 C38.475863,4 40,5.52413702 40,7.40425532 L40,27.5957447 C40,29.475863 38.475863,31 36.5957447,31 L3.40425532,31 C1.52413702,31 1.56251572e-15,29.475863 1.33226763e-15,27.5957447 L0,7.40425532 C-2.30248085e-16,5.52413702 1.52413702,4 3.40425532,4 L3.40425532,4 L12.7659577,4 Z M15.2903508,2.43014372 C14.8734667,2.43014372 14.5324659,2.79427091 14.5324659,3.24292518 L14.5324659,4.02307129 C14.5324659,4.02307129 24.5711017,4.02307129 24.5711017,4.02307129 C24.5711017,4.02307129 24.5711017,3.24292518 24.5711017,3.24292518 C24.5711017,2.79310993 24.231367,2.43014372 23.8132168,2.43014372 L15.2903508,2.43014372 Z" id="Combined-Shape" fill="#E76024"></path>
            <path d="M14.4598941,13.4054054 C14.5513127,12.4799553 13.8670208,11.7297297 12.9314854,11.7297297 C11.99595,11.7297297 11.1634394,12.4799553 11.0720208,13.4054054 C10.9806022,14.3308555 11.6648941,15.0810811 12.6004295,15.0810811 C13.5359649,15.0810811 14.3684755,14.3308555 14.4598941,13.4054054 Z" id="Oval-97-Copy-3" fill="#333333"></path>
            <path d="M23.6407062,14.02731 C24.2233152,14.6849589 25.0596368,15.0810811 26.149312,15.0810811 C27.2389872,15.0810811 28.150022,14.6849589 28.8566713,14.02731 C29.2860173,13.6277357 29.5561234,13.2222015 29.6986637,12.9135532 C29.9068449,12.4627699 29.7355107,11.9583858 29.3159779,11.7869798 C28.8964452,11.6155738 28.3875826,11.8420538 28.1794013,12.2928371 C28.1366756,12.3853529 28.0059886,12.5815649 27.7887531,12.7837368 C27.4177668,13.1289983 26.9448556,13.3346222 26.3140133,13.3346222 C25.683171,13.3346222 25.2490429,13.1289983 24.943177,12.7837368 C24.7640735,12.5815649 24.6703944,12.385353 24.6451182,12.2928372 C24.5219601,11.8420539 24.0558142,11.6155738 23.6039523,11.7869798 C23.1520904,11.9583858 22.8856234,12.4627698 23.0087815,12.9135531 C23.0931071,13.2222015 23.2867247,13.6277357 23.6407062,14.02731 Z" id="Shape-Copy-6" fill="#333333" fill-rule="nonzero"></path>
            <path d="M10.6221874,20.5629703 C10.9501516,21.2939998 11.3890353,22.0226193 11.9557183,22.7029729 C13.5725707,24.6441487 15.8893253,25.8108108 18.9845647,25.8108108 C22.0798041,25.8108108 24.604884,24.6441487 26.5683631,22.7029729 C27.2565336,22.0226194 27.8255235,21.2939998 28.2840242,20.5629703 C28.5645036,20.1157763 28.7496553,19.7579268 28.8473638,19.5333369 C29.0570702,19.051312 28.8826901,18.5128977 28.4578749,18.3307549 C28.0330597,18.1486122 27.5186783,18.3917147 27.3089719,18.8737395 C27.2991158,18.8963946 27.2701017,18.9576727 27.2213146,19.0519653 C27.1343075,19.220127 27.0261997,19.410432 26.8964452,19.6173115 C26.5208319,20.216186 26.0512799,20.8174705 25.4839453,21.3783607 C23.8602669,22.9835956 21.7799155,23.9447799 19.1511688,23.9447799 C16.5224222,23.9447799 14.613705,22.9835957 13.2766658,21.3783607 C12.8094868,20.8174705 12.4473033,20.216186 12.1786283,19.6173115 C12.0858153,19.4104321 12.0116893,19.2201271 11.9547101,19.0519653 C11.9227604,18.9576727 11.9046884,18.8963946 11.8988777,18.8737396 C11.7752442,18.3917147 11.3042725,18.1486122 10.8469329,18.3307549 C10.3895933,18.5128977 10.1190711,19.051312 10.2427046,19.5333369 C10.3003091,19.7579268 10.4215613,20.1157762 10.6221874,20.5629703 Z" id="Shape-Copy-7" fill="#333333" fill-rule="nonzero"></path>
            <path d="M16.4432212,18.9248553 L16.1702128,19.9459459 L17.2126331,19.9459459 L20.3043914,19.9459459 C20.7914536,19.9459459 21.2248208,19.5537633 21.272344,19.0699814 C21.3198673,18.5861995 20.9635505,18.1940169 20.4764883,18.1940169 L18.4255371,18.1940169 L20.5978517,10.0752828 C20.7254126,9.59818667 20.4458185,9.14644866 19.9733608,9.0662977 C19.5009031,8.98614675 19.0144919,9.30793438 18.886931,9.7850305 L16.4432212,18.9248553 Z" id="Shape-Copy-8" fill="#333333" fill-rule="nonzero"></path>
        </g>
    </g>
</svg>